<?xml version="1.0" standalone="no"?>
<!DOCTYPE svg PUBLIC "-//W3C//DTD SVG 20010904//EN"
 "http://www.w3.org/TR/2001/REC-SVG-20010904/DTD/svg10.dtd">
<svg version="1.0" xmlns="http://www.w3.org/2000/svg"
 width="600.000000pt" height="600.000000pt" viewBox="0 0 600.000000 600.000000"
 preserveAspectRatio="xMidYMid meet">
<metadata>
Created by potrace 1.11, written by Peter Selinger 2001-2013
</metadata>
<g transform="translate(0.000000,600.000000) scale(0.100000,-0.100000)"
fill="#000000" stroke="none">
<path d="M493 5876 c0 -23 -3 -47 -7 -54 -4 -7 -4 -12 1 -12 4 0 8 -72 8 -159
0 -103 -4 -157 -10 -154 -5 3 -4 0 2 -7 9 -10 10 -17 2 -27 -9 -10 -8 -13 1
-13 7 0 10 -7 6 -15 -3 -8 -2 -14 2 -13 4 1 40 -4 79 -11 40 -7 74 -11 76 -9
2 1 10 -2 18 -8 8 -5 24 -9 37 -8 12 0 22 -2 22 -5 0 -4 12 -8 28 -9 15 -1 38
-5 52 -8 14 -3 36 -7 50 -10 14 -2 45 -9 70 -14 25 -6 56 -12 70 -14 14 -3 25
-5 25 -6 0 -2 21 -6 69 -14 21 -4 48 -8 60 -11 12 -3 35 -7 51 -11 17 -3 41
-8 55 -10 14 -3 35 -6 48 -7 12 0 22 -4 22 -8 0 -3 10 -5 23 -5 12 1 27 0 32
-3 12 -7 8 -6 73 -16 28 -4 52 -10 52 -14 0 -3 17 -7 38 -8 44 -3 64 -7 77
-14 6 -4 20 -5 33 -4 12 1 22 -1 22 -5 0 -3 8 -6 18 -7 9 0 33 -4 52 -8 19 -3
45 -8 57 -10 11 -1 29 -6 40 -9 18 -5 67 -15 153 -30 8 -1 24 -5 35 -9 11 -4
36 -9 55 -12 35 -5 117 -21 133 -26 8 -2 45 -9 132 -24 52 -9 70 -13 70 -15 0
-2 29 -8 70 -15 17 -2 64 -12 105 -20 41 -8 88 -18 105 -21 16 -3 34 -9 40
-14 7 -6 16 -5 23 2 9 9 12 9 12 -1 0 -7 4 -9 10 -6 6 3 16 3 22 -1 7 -5 19
-9 28 -9 8 -1 32 -5 53 -9 23 -4 37 -3 37 4 0 5 -3 10 -7 11 -21 2 -46 8 -61
15 -9 4 -19 8 -22 9 -3 1 -23 10 -44 19 -22 10 -48 19 -57 21 -9 2 -25 8 -35
13 -46 24 -143 60 -148 55 -3 -4 -6 -2 -6 4 0 10 -22 20 -65 29 -11 3 -21 9
-23 14 -2 5 -10 6 -18 3 -8 -3 -14 1 -14 8 0 7 -3 9 -7 6 -3 -4 -11 -3 -17 2
-13 10 -89 35 -95 32 -2 -2 -7 2 -11 9 -4 6 -13 13 -21 14 -8 2 -27 9 -44 16
-16 7 -37 14 -45 16 -8 2 -23 7 -35 12 -73 35 -309 127 -317 124 -5 -1 -8 3
-8 8 0 5 -3 9 -8 7 -4 -1 -28 6 -52 17 -44 18 -74 30 -115 47 -11 4 -41 17
-67 27 -25 11 -49 18 -52 14 -3 -3 -6 0 -6 6 0 7 -3 11 -7 10 -5 0 -16 2 -26
5 -9 4 -25 10 -35 14 -9 3 -20 5 -24 5 -5 -1 -8 3 -8 9 0 5 -4 7 -10 4 -5 -3
-10 -2 -10 3 0 5 -7 9 -15 10 -8 1 -22 3 -30 4 -8 1 -15 4 -15 8 0 7 -101 45
-112 42 -5 -1 -8 2 -8 8 0 6 -3 9 -8 8 -4 -2 -28 5 -52 16 -94 39 -223 91
-230 91 -3 0 -11 4 -17 8 -7 5 -13 5 -13 0 0 -4 -4 -3 -8 3 -4 6 -45 25 -92
43 -47 18 -104 41 -127 52 -24 10 -47 19 -51 19 -5 0 -23 7 -41 16 -17 9 -40
17 -49 19 -9 2 -17 4 -17 5 0 1 -7 3 -17 5 -13 2 -16 -5 -15 -39z"/>
<path d="M5442 5904 c-10 -6 -20 -12 -24 -13 -54 -10 -68 -15 -68 -22 0 -5 -7
-9 -15 -9 -15 0 -69 -21 -117 -47 -15 -7 -31 -14 -35 -15 -8 0 -47 -14 -73
-25 -8 -3 -17 -7 -20 -8 -7 -2 -62 -24 -80 -32 -8 -3 -17 -7 -20 -7 -7 -2
-158 -64 -190 -78 -14 -6 -34 -13 -45 -15 -10 -2 -22 -8 -26 -15 -4 -6 -11 -8
-17 -4 -6 3 -12 2 -14 -4 -1 -5 -12 -11 -23 -13 -11 -2 -33 -10 -50 -17 -16
-7 -32 -14 -35 -14 -3 -1 -11 -5 -17 -9 -7 -5 -13 -5 -13 0 0 4 -4 3 -8 -3 -4
-5 -29 -18 -57 -28 -27 -10 -59 -21 -70 -26 -78 -34 -129 -53 -141 -53 -8 0
-14 -4 -14 -9 0 -4 -9 -8 -20 -8 -11 0 -20 -4 -20 -9 0 -5 -18 -12 -40 -16
-22 -4 -40 -11 -40 -16 0 -5 -6 -9 -13 -9 -7 0 -51 -16 -97 -35 -46 -19 -86
-33 -88 -30 -2 2 -10 -2 -18 -9 -7 -8 -33 -20 -58 -27 -26 -7 -46 -18 -46 -23
0 -5 -3 -7 -6 -3 -3 3 -41 -9 -85 -28 -43 -18 -79 -30 -79 -27 0 4 -4 2 -8 -4
-4 -5 -27 -17 -52 -27 -25 -9 -58 -22 -75 -28 -16 -7 -32 -13 -35 -14 -3 -1
-12 -5 -20 -8 -40 -17 -76 -30 -89 -33 -8 -1 -17 -8 -21 -14 -4 -7 -10 -11
-14 -10 -12 2 -86 -23 -86 -30 0 -4 -7 -7 -15 -8 -8 -1 -22 -3 -30 -4 -8 -1
-15 -5 -15 -10 0 -4 -9 -8 -19 -8 -11 0 -23 -4 -26 -10 -3 -5 -14 -10 -23 -11
-9 0 -35 -9 -57 -19 l-40 -19 55 6 c30 3 60 8 65 11 6 4 19 8 30 9 11 1 36 5
55 7 19 3 49 9 67 14 17 6 34 8 37 4 3 -3 6 0 6 6 0 6 7 9 15 6 8 -4 21 -1 29
5 7 6 16 8 19 5 3 -4 14 -3 24 1 10 5 32 10 48 11 32 4 70 11 70 14 0 1 9 3
20 5 32 5 96 16 119 21 50 11 72 16 89 17 9 1 17 6 17 12 0 5 5 3 10 -5 5 -8
10 -10 10 -4 0 6 10 10 23 10 12 -1 27 1 32 5 14 9 125 31 158 30 10 0 15 5
11 11 -4 7 -2 8 5 4 6 -4 44 0 84 9 71 15 88 19 157 31 19 4 44 9 55 11 11 3
30 5 43 6 12 1 22 4 22 7 0 3 9 6 20 7 11 1 55 9 98 17 42 9 86 17 97 19 11 1
25 5 30 8 6 4 20 5 33 4 12 -1 22 1 22 5 0 3 10 7 23 8 20 1 47 6 152 27 17 4
38 7 48 8 9 1 17 4 17 7 0 3 10 6 23 6 12 1 59 9 105 18 108 23 133 28 157 31
11 1 20 3 20 5 0 1 9 3 20 5 11 1 31 5 45 8 14 3 43 9 65 13 48 10 53 11 63
14 4 1 15 2 25 1 12 -2 17 5 18 26 5 191 2 333 -6 333 -7 0 -7 3 0 8 12 9 14
102 1 102 -4 0 -3 6 4 14 9 12 8 15 -10 13 -12 -1 -29 -7 -38 -13z"/>
<path d="M0 3005 c0 -1262 4 -2296 8 -2299 5 -3 19 -7 33 -9 13 -3 42 -8 64
-12 43 -8 62 -12 97 -20 13 -3 37 -8 53 -11 17 -2 46 -9 65 -14 46 -12 126
-28 175 -34 11 -2 27 -6 35 -9 8 -4 26 -8 40 -11 14 -2 41 -7 60 -11 19 -3 44
-8 55 -10 11 -2 20 -4 20 -5 0 -2 16 -5 60 -13 17 -3 53 -10 80 -16 28 -6 64
-14 80 -16 42 -7 70 -13 70 -15 0 -1 9 -3 20 -5 11 -1 31 -5 45 -8 51 -12 68
-16 101 -21 19 -3 48 -9 64 -14 17 -5 38 -8 48 -6 9 1 17 -1 17 -5 0 -4 8 -7
18 -8 9 -1 31 -4 47 -8 17 -3 44 -8 60 -11 17 -3 43 -9 59 -15 16 -5 31 -7 34
-5 2 3 15 0 29 -5 14 -5 41 -12 61 -15 48 -8 71 -12 90 -18 26 -8 140 -29 160
-29 6 0 12 -3 12 -6 0 -5 32 -10 97 -15 11 0 19 -4 17 -7 -3 -6 155 -36 168
-31 5 1 8 -2 8 -6 0 -5 12 -9 28 -9 15 -1 38 -4 52 -8 14 -4 32 -8 40 -9 8 -2
42 -9 75 -16 33 -7 65 -13 72 -14 7 -1 15 -5 19 -8 3 -4 17 -4 30 -2 13 2 24
1 24 -4 0 -5 12 -9 28 -9 15 -1 45 -6 67 -12 38 -11 84 -19 129 -25 11 -2 29
-7 39 -11 10 -4 31 -8 47 -9 17 0 30 -3 30 -7 0 -3 6 -6 13 -6 20 -2 82 -12
82 -14 0 -7 125 -5 153 3 19 5 44 12 56 14 37 7 80 16 101 19 26 4 62 13 83
19 9 3 35 8 57 12 22 3 45 7 50 8 6 1 15 4 20 7 6 4 18 5 28 4 9 -2 17 0 17 4
0 4 8 7 18 8 31 1 91 11 100 17 5 3 31 8 58 12 27 3 56 10 64 14 8 4 23 6 33
5 9 -2 17 0 17 3 0 4 15 8 33 10 66 5 77 7 77 13 0 3 6 6 13 6 13 1 58 9 97
19 14 3 35 6 48 7 12 1 22 5 22 9 0 5 11 6 25 4 13 -3 27 -1 30 4 3 5 13 8 23
8 9 0 28 2 42 6 39 9 122 26 160 32 19 3 39 8 43 11 4 2 22 6 40 9 34 4 48 7
117 23 25 5 59 12 75 15 17 3 44 9 60 12 17 4 36 7 43 7 6 0 12 4 12 9 0 5 4
7 9 4 5 -4 33 -1 63 6 29 6 56 11 61 10 4 -1 7 2 7 6 0 5 10 8 23 7 12 -1 37
2 56 7 40 11 67 17 101 23 14 2 36 7 50 10 14 3 48 10 75 15 28 6 61 13 75 16
14 3 34 7 45 9 11 3 27 6 35 8 8 2 38 7 65 12 28 4 54 10 60 13 5 3 25 7 44 9
18 2 42 8 51 13 10 5 27 7 39 5 11 -2 21 1 21 6 0 6 4 8 9 5 5 -3 28 0 52 7
25 8 50 12 58 9 9 -3 11 0 6 8 -5 8 -4 11 3 6 6 -3 32 -1 59 5 26 6 57 12 68
14 65 8 107 19 112 31 3 7 6 1042 6 2299 l2 2285 -35 -6 c-41 -7 -65 -12 -65
-14 0 -1 -13 -3 -30 -6 -51 -7 -60 -9 -72 -17 -7 -5 -13 -6 -13 -3 0 2 -28 -2
-62 -10 -73 -17 -126 -27 -150 -28 -10 0 -18 -3 -18 -7 0 -3 -12 -5 -27 -5
-16 1 -32 -2 -38 -5 -5 -4 -27 -10 -49 -13 -21 -4 -41 -8 -45 -10 -9 -6 -83
-18 -103 -18 -10 1 -18 -2 -18 -6 0 -6 -33 -12 -87 -16 -13 0 -23 -4 -23 -8 0
-5 -3 -7 -7 -6 -15 3 -163 -26 -163 -32 0 -3 -13 -5 -30 -4 -16 1 -30 -2 -30
-6 0 -5 -8 -8 -17 -8 -10 0 -31 -2 -48 -6 -16 -3 -46 -9 -65 -12 -19 -3 -42
-8 -50 -11 -8 -3 -22 -7 -30 -8 -8 -1 -28 -6 -45 -9 -16 -4 -41 -9 -55 -10
-14 -2 -35 -6 -48 -10 -12 -4 -35 -9 -50 -11 -15 -3 -38 -7 -52 -11 -14 -3
-33 -6 -42 -6 -10 1 -18 -3 -18 -7 0 -4 -15 -7 -32 -8 -18 0 -40 -3 -48 -6 -8
-3 -42 -11 -75 -18 -33 -7 -64 -14 -70 -15 -5 -1 -23 -5 -40 -8 -16 -3 -41 -8
-55 -11 -14 -3 -36 -7 -50 -10 -30 -6 -43 -9 -140 -30 -41 -10 -85 -18 -97
-18 -13 -1 -23 -5 -23 -10 0 -4 -4 -6 -8 -3 -5 3 -24 1 -43 -4 -19 -5 -47 -12
-64 -14 -16 -3 -41 -8 -55 -11 -14 -3 -38 -8 -55 -10 -16 -3 -38 -8 -47 -11
-16 -5 -35 -9 -88 -19 -14 -3 -36 -7 -50 -10 -14 -3 -47 -10 -75 -15 -27 -6
-61 -13 -75 -16 -39 -9 -62 -13 -105 -20 -22 -3 -42 -10 -43 -15 -2 -5 -7 -7
-11 -5 -4 3 -24 1 -44 -4 -23 -5 -37 -4 -37 2 0 5 -4 7 -8 4 -5 -3 -35 1 -68
9 -32 7 -72 16 -89 19 -16 3 -43 8 -60 12 -16 3 -41 7 -55 8 -14 0 -27 3 -30
6 -4 5 -77 21 -160 37 -14 2 -45 9 -70 14 -25 6 -55 13 -67 15 -26 5 -61 12
-100 20 -16 3 -36 6 -45 7 -10 1 -18 4 -18 8 0 4 -8 6 -17 5 -10 -2 -40 3 -68
10 -27 7 -66 15 -85 18 -19 3 -62 12 -95 20 -33 8 -63 12 -67 10 -5 -3 -8 -1
-8 5 0 6 -7 8 -15 5 -8 -4 -21 -1 -29 5 -7 6 -15 9 -17 6 -3 -2 -29 2 -59 10
-29 8 -57 12 -61 9 -4 -2 -10 0 -13 4 -3 5 -17 8 -31 7 -14 -2 -25 1 -25 5 0
5 -8 9 -17 8 -10 0 -29 3 -43 6 -14 3 -59 13 -100 23 -41 9 -79 16 -84 14 -5
-1 -16 1 -25 5 -9 4 -27 8 -41 10 -46 7 -55 10 -67 17 -7 5 -13 6 -13 4 0 -3
-36 3 -80 13 -44 10 -83 18 -85 19 -3 1 -6 1 -7 2 -17 5 -51 10 -84 12 -23 1
-40 5 -37 10 2 4 -6 7 -19 8 -13 0 -31 2 -40 5 -10 2 -26 6 -35 8 -10 3 -18 5
-18 6 0 1 -11 3 -25 5 -14 1 -38 6 -55 9 -16 4 -41 9 -55 11 -44 8 -85 16
-100 22 -8 3 -23 5 -32 4 -10 -1 -18 1 -18 6 0 4 -12 9 -27 10 -40 2 -118 19
-133 28 -6 3 -10 0 -10 -7 0 -9 -3 -9 -8 -2 -7 11 -98 34 -144 36 -16 1 -28 5
-28 8 0 4 -10 6 -22 6 -13 -1 -27 0 -33 3 -5 3 -17 6 -25 7 -8 0 -22 4 -30 7
-8 3 -30 8 -47 11 l-33 4 0 -2293z"/>
</g>
</svg>
